<mxfile host="Electron" modified="2023-11-04T22:47:37.079Z" agent="Mozilla/5.0 (Windows NT 10.0; Win64; x64) AppleWebKit/537.36 (KHTML, like Gecko) draw.io/21.6.8 Chrome/114.0.5735.289 Electron/25.5.0 Safari/537.36" etag="tN9VMux7lb30aAcRXcNj" version="21.6.8" type="device">
  <diagram name="Page-1" id="VnlH0Y06McOiaRYZfQ7j">
    <mxGraphModel dx="792" dy="1235" grid="1" gridSize="10" guides="1" tooltips="1" connect="1" arrows="1" fold="1" page="1" pageScale="1" pageWidth="1169" pageHeight="1654" math="0" shadow="0">
      <root>
        <mxCell id="0" />
        <mxCell id="1" parent="0" />
        <mxCell id="9qeSm3GH6jOZeFcjtzKw-22" value="" style="group" vertex="1" connectable="0" parent="1">
          <mxGeometry x="120" y="110" width="570" height="680" as="geometry" />
        </mxCell>
        <mxCell id="9qeSm3GH6jOZeFcjtzKw-20" value="&lt;p style=&quot;margin:0px;margin-top:4px;margin-left:10px;text-align:left;&quot;&gt;&lt;b&gt;STD&lt;/b&gt;&amp;nbsp;ReadyUpControl&lt;/p&gt;" style="html=1;shape=mxgraph.sysml.package;html=1;overflow=fill;whiteSpace=wrap;labelX=137;" vertex="1" parent="9qeSm3GH6jOZeFcjtzKw-22">
          <mxGeometry width="570" height="130" as="geometry" />
        </mxCell>
        <mxCell id="9qeSm3GH6jOZeFcjtzKw-21" value="" style="rounded=0;whiteSpace=wrap;html=1;" vertex="1" parent="9qeSm3GH6jOZeFcjtzKw-22">
          <mxGeometry y="130" width="570" height="550" as="geometry" />
        </mxCell>
        <mxCell id="9qeSm3GH6jOZeFcjtzKw-3" style="edgeStyle=orthogonalEdgeStyle;rounded=0;orthogonalLoop=1;jettySize=auto;html=1;" edge="1" parent="1" source="9qeSm3GH6jOZeFcjtzKw-1" target="9qeSm3GH6jOZeFcjtzKw-2">
          <mxGeometry relative="1" as="geometry" />
        </mxCell>
        <mxCell id="9qeSm3GH6jOZeFcjtzKw-1" value="" style="shape=ellipse;html=1;fillColor=strokeColor;fontSize=18;fontColor=#ffffff;" vertex="1" parent="1">
          <mxGeometry x="180" y="160" width="40" height="40" as="geometry" />
        </mxCell>
        <mxCell id="9qeSm3GH6jOZeFcjtzKw-2" value="void start() / startFlag.set()&lt;br&gt;void startGame() / startGameFlag.set()&lt;br&gt;void buttonPressed(ID) / buttonQueue.write(ID)" style="rounded=1;whiteSpace=wrap;html=1;" vertex="1" parent="1">
          <mxGeometry x="280" y="140" width="310" height="80" as="geometry" />
        </mxCell>
        <mxCell id="9qeSm3GH6jOZeFcjtzKw-6" style="edgeStyle=orthogonalEdgeStyle;rounded=0;orthogonalLoop=1;jettySize=auto;html=1;" edge="1" parent="1" source="9qeSm3GH6jOZeFcjtzKw-4" target="9qeSm3GH6jOZeFcjtzKw-5">
          <mxGeometry relative="1" as="geometry" />
        </mxCell>
        <mxCell id="9qeSm3GH6jOZeFcjtzKw-4" value="" style="shape=ellipse;html=1;fillColor=strokeColor;fontSize=18;fontColor=#ffffff;" vertex="1" parent="1">
          <mxGeometry x="390" y="260" width="40" height="40" as="geometry" />
        </mxCell>
        <mxCell id="9qeSm3GH6jOZeFcjtzKw-8" value="startFlag&lt;br&gt;buttonQueue.clear()" style="edgeStyle=orthogonalEdgeStyle;rounded=0;orthogonalLoop=1;jettySize=auto;html=1;" edge="1" parent="1" source="9qeSm3GH6jOZeFcjtzKw-5" target="9qeSm3GH6jOZeFcjtzKw-7">
          <mxGeometry x="0.2" y="60" relative="1" as="geometry">
            <mxPoint as="offset" />
          </mxGeometry>
        </mxCell>
        <mxCell id="9qeSm3GH6jOZeFcjtzKw-5" value="Idle" style="shape=rect;rounded=1;html=1;whiteSpace=wrap;align=center;" vertex="1" parent="1">
          <mxGeometry x="370" y="340" width="80" height="40" as="geometry" />
        </mxCell>
        <mxCell id="9qeSm3GH6jOZeFcjtzKw-9" value="button = buttonQueue.read()" style="edgeStyle=orthogonalEdgeStyle;rounded=0;orthogonalLoop=1;jettySize=auto;html=1;" edge="1" parent="1" target="9qeSm3GH6jOZeFcjtzKw-10">
          <mxGeometry relative="1" as="geometry">
            <mxPoint x="410" y="530" as="targetPoint" />
            <mxPoint x="410" y="470" as="sourcePoint" />
            <Array as="points">
              <mxPoint x="410" y="505" />
              <mxPoint x="410" y="505" />
            </Array>
          </mxGeometry>
        </mxCell>
        <mxCell id="9qeSm3GH6jOZeFcjtzKw-7" value="WaitForReady" style="shape=rect;rounded=1;html=1;whiteSpace=wrap;align=center;" vertex="1" parent="1">
          <mxGeometry x="360" y="430" width="100" height="40" as="geometry" />
        </mxCell>
        <mxCell id="9qeSm3GH6jOZeFcjtzKw-11" value="[button == ReloadButton] /&amp;nbsp;&lt;br&gt;bReload = true" style="edgeStyle=orthogonalEdgeStyle;rounded=0;orthogonalLoop=1;jettySize=auto;html=1;" edge="1" parent="1" source="9qeSm3GH6jOZeFcjtzKw-10" target="9qeSm3GH6jOZeFcjtzKw-7">
          <mxGeometry x="-0.3685" y="20" relative="1" as="geometry">
            <Array as="points">
              <mxPoint x="330" y="560" />
              <mxPoint x="330" y="460" />
            </Array>
            <mxPoint x="20" y="20" as="offset" />
          </mxGeometry>
        </mxCell>
        <mxCell id="9qeSm3GH6jOZeFcjtzKw-12" value="[button == TriggerButton] / &lt;br&gt;bTrigger = true" style="edgeStyle=orthogonalEdgeStyle;rounded=0;orthogonalLoop=1;jettySize=auto;html=1;" edge="1" parent="1" source="9qeSm3GH6jOZeFcjtzKw-10" target="9qeSm3GH6jOZeFcjtzKw-7">
          <mxGeometry x="-0.3683" y="-20" relative="1" as="geometry">
            <Array as="points">
              <mxPoint x="490" y="560" />
              <mxPoint x="490" y="460" />
            </Array>
            <mxPoint x="-20" y="20" as="offset" />
          </mxGeometry>
        </mxCell>
        <mxCell id="9qeSm3GH6jOZeFcjtzKw-13" value="[bReload &amp;amp;&amp;amp; bTrigger] / buttonQueue.clear()" style="edgeStyle=orthogonalEdgeStyle;rounded=0;orthogonalLoop=1;jettySize=auto;html=1;" edge="1" parent="1" source="9qeSm3GH6jOZeFcjtzKw-10" target="9qeSm3GH6jOZeFcjtzKw-17">
          <mxGeometry x="0.3333" y="-10" relative="1" as="geometry">
            <mxPoint x="410" y="650" as="targetPoint" />
            <Array as="points" />
            <mxPoint as="offset" />
          </mxGeometry>
        </mxCell>
        <mxCell id="9qeSm3GH6jOZeFcjtzKw-10" value="" style="rhombus;whiteSpace=wrap;html=1;" vertex="1" parent="1">
          <mxGeometry x="390" y="540" width="40" height="40" as="geometry" />
        </mxCell>
        <mxCell id="9qeSm3GH6jOZeFcjtzKw-19" value="startGameFlag /&lt;br&gt;GameStateControl.start()" style="edgeStyle=orthogonalEdgeStyle;rounded=0;orthogonalLoop=1;jettySize=auto;html=1;" edge="1" parent="1" source="9qeSm3GH6jOZeFcjtzKw-17" target="9qeSm3GH6jOZeFcjtzKw-5">
          <mxGeometry x="-0.7627" y="30" relative="1" as="geometry">
            <Array as="points">
              <mxPoint x="200" y="690" />
              <mxPoint x="200" y="360" />
            </Array>
            <mxPoint as="offset" />
          </mxGeometry>
        </mxCell>
        <mxCell id="9qeSm3GH6jOZeFcjtzKw-17" value="&lt;p style=&quot;margin:0px;margin-top:4px;text-align:center;&quot;&gt;SendReady&lt;/p&gt;&lt;hr&gt;&lt;p&gt;&lt;/p&gt;&lt;p style=&quot;margin:0px;margin-left:8px;text-align:left;&quot;&gt;ConnectControl.sendReady(playerNum)&lt;/p&gt;&lt;p style=&quot;margin:0px;margin-left:8px;text-align:left;&quot;&gt;RGB.setRGB(GameData.getTeamColor())&lt;/p&gt;" style="shape=mxgraph.sysml.simpleState;html=1;overflow=fill;whiteSpace=wrap;align=center;" vertex="1" parent="1">
          <mxGeometry x="290" y="650" width="240" height="80" as="geometry" />
        </mxCell>
      </root>
    </mxGraphModel>
  </diagram>
</mxfile>
